<?xml version="1.0" encoding="UTF-8"?>
<svg width="701px" height="128px" viewBox="0 0 701 128" version="1.1" xmlns="http://www.w3.org/2000/svg" xmlns:xlink="http://www.w3.org/1999/xlink">
    <!-- Generator: Sketch 42 (36781) - http://www.bohemiancoding.com/sketch -->
    <title>Artboard</title>
    <desc>Created with Sketch.</desc>
    <defs></defs>
    <g id="Page-1" stroke="none" stroke-width="1" fill="none" fill-rule="evenodd">
        <g id="Artboard">
            <g id="Group">
                <path d="M8.42389037,50.3526163 C13.5117023,55.4404283 21.7597769,55.4372766 26.8489787,50.3480749 L51.0683806,26.128673 C56.1550753,21.0419782 56.1596156,12.7902782 51.072922,7.70358468 C45.9851101,2.61577271 37.7370355,2.61892442 32.6478337,7.70812615 L8.42843184,31.927528 C3.34173713,37.0142228 3.33719683,45.2659228 8.42389037,50.3526163 Z M5.70223702,29.2013332 L29.9216389,4.98193133 C36.516511,-1.61294079 47.2057032,-1.61602381 53.7991168,4.97738986 C60.3909966,11.5692696 60.3873564,22.2620868 53.7945754,28.8548678 L29.5751735,53.0742697 C22.9803014,59.6691418 12.2911092,59.6722248 5.69769556,53.0788111 C-0.894184229,46.4869314 -0.890543999,35.7941142 5.70223702,29.2013332 Z M10.9671813,47.8093254 C14.8642287,51.7063729 21.1801247,51.705737 25.0760433,47.8098184 L48.5301241,24.3557376 C52.4302626,20.4555991 52.4258219,14.1430664 48.5296311,10.2468756 C44.6325837,6.34982809 38.3166876,6.35046405 34.4207691,10.2463826 L10.9666883,33.7004634 C7.06654983,37.6006019 7.07099045,43.9131346 10.9671813,47.8093254 Z M8.24098643,50.5355203 C2.83799646,45.1325303 2.83588167,36.3788804 8.24049347,30.9742686 L31.6945743,7.52018777 C37.096416,2.11834608 45.85343,2.11828477 51.255826,7.52068074 C56.6588159,12.9236707 56.6609307,21.6773206 51.2563189,27.0819324 L27.8022381,50.5360132 C22.4003964,55.9378549 13.6433824,55.9379162 8.24098643,50.5355203 Z" id="Combined-Shape" fill="#398684" fill-rule="nonzero"></path>
                <path d="M8.42389037,77.5413289 C3.33607841,82.6291409 3.33923012,90.8772154 8.42843184,95.9664172 L32.6478337,120.185819 C37.7345285,125.272514 45.9862285,125.277054 51.072922,120.190361 C56.160734,115.102549 56.1575823,106.854474 51.0683806,101.765272 L26.8489787,77.5458704 C21.7622839,72.4591756 13.5105839,72.4546353 8.42389037,77.5413289 Z M29.5751735,74.8196755 L53.7945754,99.0390774 C60.3894475,105.63395 60.3925305,116.323142 53.7991168,122.916555 C47.2072371,129.508435 36.5144199,129.504795 29.9216389,122.912014 L5.70223702,98.692612 C-0.892635096,92.0977399 -0.895718114,81.4085477 5.69769556,74.8151341 C12.2895753,68.2232543 22.9823924,68.2268945 29.5751735,74.8196755 Z M10.9671813,80.0846198 C7.07013379,83.9816672 7.07076974,90.2975633 10.9666883,94.1934818 L34.4207691,117.647563 C38.3209076,121.547701 44.6334403,121.54326 48.5296311,117.64707 C52.4266786,113.750022 52.4260426,107.434126 48.5301241,103.538208 L25.0760433,80.0841268 C21.1759048,76.1839883 14.8633721,76.188429 10.9671813,80.0846198 Z M27.8022381,77.357932 L51.2563189,100.812013 C56.6581606,106.213854 56.6582219,114.970869 51.255826,120.373264 C45.852836,125.776254 37.0991861,125.778369 31.6945743,120.373757 L8.24049347,96.9196766 C2.83865177,91.5178349 2.83859047,82.7608209 8.24098643,77.3584249 C13.6439764,71.955435 22.3976263,71.9533202 27.8022381,77.357932 Z" id="Combined-Shape" fill="#398684" fill-rule="nonzero"></path>
                <path d="M77.5922837,120.190361 C82.6800957,125.278173 90.9281702,125.275021 96.017372,120.185819 L120.236774,95.9664172 C125.323469,90.8797225 125.328009,82.6280224 120.241315,77.5413289 C115.153503,72.4535169 106.905429,72.4566686 101.816227,77.5458704 L77.5968252,101.765272 C72.5101304,106.851967 72.5055902,115.103667 77.5922837,120.190361 Z M74.8660889,122.916555 C68.2742091,116.324676 68.2778493,105.631858 74.8706303,99.0390774 L99.0900322,74.8196755 C105.684904,68.2248034 116.374096,68.2217204 122.96751,74.8151341 C129.55939,81.4070139 129.55575,92.099831 122.962969,98.692612 L98.7435668,122.912014 C92.1486947,129.506886 81.4595025,129.509969 74.8660889,122.916555 Z M80.1355746,117.64707 C84.032622,121.544117 90.3485181,121.543481 94.2444366,117.647563 L117.698517,94.1934818 C121.598656,90.2933433 121.594215,83.9808106 117.698024,80.0846198 C113.800977,76.1875723 107.485081,76.1882083 103.589162,80.0841268 L80.1350816,103.538208 C76.2349431,107.438346 76.2393838,113.750879 80.1355746,117.64707 Z M77.4093798,120.373264 C72.0063898,114.970275 72.004275,106.216625 77.4088868,100.812013 L100.862968,77.357932 C106.264809,71.9560903 115.021823,71.956029 120.424219,77.3584249 C125.827209,82.7614149 125.829324,91.5150648 120.424712,96.9196766 L96.9706314,120.373757 C91.5687897,125.775599 82.8117757,125.77566 77.4093798,120.373264 Z" id="Combined-Shape" fill="#398684" fill-rule="nonzero"></path>
                <path d="M49.583506,111.528465 C49.583506,112.453208 50.3295046,113.191268 51.2497404,113.191268 L76.9679968,113.191268 C77.8869258,113.191268 78.6342312,112.446806 78.6342312,111.528465 C78.6342312,110.603721 77.8882326,109.865661 76.9679968,109.865661 L51.2497404,109.865661 C50.3308114,109.865661 49.583506,110.610124 49.583506,111.528465 Z M45.7280843,111.528465 C45.7280843,108.479034 48.2033127,106.01024 51.2497404,106.01024 L76.9679968,106.01024 C80.0156781,106.01024 82.4896529,108.472554 82.4896529,111.528465 C82.4896529,114.577896 80.0144245,117.04669 76.9679968,117.04669 L51.2497404,117.04669 C48.2020591,117.04669 45.7280843,114.584376 45.7280843,111.528465 Z" id="Rectangle-2" fill="#398684" fill-rule="nonzero"></path>
                <path d="M17.0844902,50.1204819 C16.1597467,50.1204819 15.4216867,50.8664805 15.4216867,51.7867163 L15.4216867,77.5049727 C15.4216867,78.4239017 16.1661492,79.1712071 17.0844902,79.1712071 C18.0092337,79.1712071 18.7472936,78.4252086 18.7472936,77.5049727 L18.7472936,51.7867163 C18.7472936,50.8677874 18.0028312,50.1204819 17.0844902,50.1204819 Z M17.0844902,46.2650602 C20.1339213,46.2650602 22.6027153,48.7402886 22.6027153,51.7867163 L22.6027153,77.5049727 C22.6027153,80.5526541 20.1404011,83.0266288 17.0844902,83.0266288 C14.0350591,83.0266288 11.5662651,80.5514004 11.5662651,77.5049727 L11.5662651,51.7867163 C11.5662651,48.739035 14.0285792,46.2650602 17.0844902,46.2650602 Z" id="Rectangle-2" fill="#398684" fill-rule="nonzero"></path>
                <path d="M188.740923,85.2440615 L188.740923,57.4247385 C188.740923,56.3534716 188.556802,55.6002483 188.188554,55.1650462 C187.820306,54.729844 187.167512,54.4787696 186.230154,54.4118154 L182.012062,54.1105231 L182.012062,45.9756308 L198.984862,45.9756308 L198.984862,53.5079385 C200.190037,50.8967254 202.064726,48.7374855 204.608985,47.0301538 C207.153243,45.3228222 210.082445,44.4691692 213.396677,44.4691692 C216.710909,44.4691692 219.874446,45.2056542 222.887385,46.6786462 L222.887385,61.6428308 L213.547323,62.3458462 L213.547323,57.7260308 C213.547323,56.3869472 213.212557,55.5500324 212.543015,55.2152615 C211.806519,54.8804906 210.902652,54.7131077 209.831385,54.7131077 C207.153217,54.7131077 204.960501,55.6671905 203.253169,57.5753846 C201.545838,59.4835788 200.692185,61.9106314 200.692185,64.8566154 L200.692185,88.1565538 L209.429662,88.5582769 L209.429662,96.4923077 L182.514215,96.4923077 L182.514215,88.8595692 L185.828431,88.5582769 C186.832743,88.4243686 187.569228,88.1398176 188.037908,87.7046154 C188.506587,87.2694132 188.740923,86.4492368 188.740923,85.2440615 Z M254.121354,44.4691692 C259.142917,44.4691692 263.126631,45.6910647 266.072615,48.1348923 C269.018599,50.5787199 270.491569,54.0100702 270.491569,58.4290462 C270.491569,61.3750301 269.855514,63.9694657 268.583385,66.2124308 C267.311255,68.4553958 265.737856,70.2129167 263.863138,71.4850462 C261.988421,72.7571756 259.712013,73.7949498 257.033846,74.5984 C252.547916,75.9374836 247.492951,76.6070154 241.8688,76.6070154 C242.069663,80.155587 243.17439,83.0178353 245.183015,85.1938462 C247.191641,87.369857 250.271487,88.4578462 254.422646,88.4578462 C258.573805,88.4578462 262.724902,86.9848763 266.876062,84.0388923 L270.692431,92.1737846 C269.353347,93.3789599 267.093677,94.6175936 263.913354,95.8897231 C260.73303,97.1618525 257.10082,97.7979077 253.016615,97.7979077 C244.848205,97.7979077 238.855896,95.538238 235.039508,91.0188308 C231.223119,86.4994236 229.314954,80.2895164 229.314954,72.3889231 C229.314954,64.4883297 231.490932,57.8599652 235.842954,52.5036308 C240.194976,47.1472963 246.287715,44.4691692 254.121354,44.4691692 Z M256.330831,64.5051077 C258.40641,62.9986386 259.444185,61.2076411 259.444185,59.1320615 C259.444185,55.0478565 257.435589,53.0057846 253.418338,53.0057846 C249.668904,53.0057846 246.789918,54.4954928 244.781292,57.4749538 C242.772667,60.4544149 241.667939,64.0196716 241.467077,68.1708308 C244.413061,68.1038766 247.107926,67.8528022 249.551754,67.4176 C251.995581,66.9823978 254.255251,66.0115768 256.330831,64.5051077 Z M322.615138,47.9842462 L322.615138,85.3444923 C322.615138,86.4157592 322.79926,87.1522441 323.167508,87.5539692 C323.535756,87.9556943 324.188549,88.1900304 325.125908,88.2569846 L328.339692,88.4578462 L328.339692,96.4923077 L312.3712,96.4923077 L312.3712,90.6673231 L312.069908,90.5668923 C308.722199,95.3875933 304.135906,97.7979077 298.310892,97.7979077 C291.481566,97.7979077 286.426601,95.6219295 283.145846,91.2699077 C279.865091,86.9178859 278.224738,80.9590532 278.224738,73.3932308 C278.224738,64.2874622 280.434193,57.1904254 284.853169,52.1019077 C289.272145,47.0133899 295.90051,44.4691692 304.738462,44.4691692 C310.429567,44.4691692 316.3884,45.6408498 322.615138,47.9842462 Z M310.965169,80.5238154 L310.965169,54.5122462 C309.090452,53.6418418 306.512755,53.2066462 303.232,53.2066462 C298.74607,53.2066462 295.498841,55.0143819 293.490215,58.6299077 C291.48159,62.2454335 290.477292,67.0325856 290.477292,72.9915077 C290.477292,83.838085 293.958857,89.2612923 300.922092,89.2612923 C303.868076,89.2612923 306.278391,88.3741627 308.153108,86.5998769 C310.027825,84.8255911 310.965169,82.8002575 310.965169,80.5238154 Z M349.831877,83.9384615 C351.974411,87.085308 355.070995,88.6587077 359.121723,88.6587077 C363.172451,88.6587077 367.172903,87.2192144 371.1232,84.3401846 L375.441723,92.0733538 C370.687976,95.9566963 364.729144,97.8983385 357.565046,97.8983385 C350.400949,97.8983385 344.760144,95.6386688 340.642462,91.1192615 C336.524779,86.5998543 334.465969,79.921275 334.465969,71.0833231 C334.465969,62.2453712 336.826069,55.6002684 341.546338,51.1478154 C346.266608,46.6953624 351.589386,44.4691692 357.514831,44.4691692 C363.440276,44.4691692 368.947175,45.8417094 374.035692,48.5868308 L374.035692,61.6428308 L364.796062,62.3458462 L364.796062,57.5251692 C364.796062,55.7174063 364.143268,54.5959406 362.837662,54.1607385 C361.532055,53.7255363 360.176253,53.5079385 358.770215,53.5079385 C350.668759,53.5079385 346.618092,59.2324351 346.618092,70.6816 C346.618092,76.3727054 347.689343,80.791615 349.831877,83.9384615 Z M392.916677,35.3299692 L399.444677,35.3299692 L399.444677,45.9756308 L412.801969,45.9756308 L411.797662,54.4118154 L399.444677,54.4118154 L399.444677,80.8251077 C399.444677,83.7710917 399.980302,85.8299018 401.051569,87.0016 C402.122836,88.1732982 403.779927,88.7591385 406.022892,88.7591385 C408.265857,88.7591385 410.525527,88.0561301 412.801969,86.6500923 L415.814892,94.3832615 C412.467183,96.7266579 408.215657,97.8983385 403.060185,97.8983385 C400.047246,97.8983385 397.503026,97.5133577 395.427446,96.7433846 C393.351867,95.9734115 391.811943,95.1197585 390.807631,94.1824 C389.803318,93.2450415 389.033357,91.8725013 388.497723,90.0647385 C387.96209,88.2569756 387.6608,86.8342206 387.593846,85.7964308 C387.526892,84.758641 387.493415,83.2354562 387.493415,81.2268308 L387.493415,54.4118154 L380.362831,54.4118154 L381.367138,47.0803692 C384.513985,46.8125525 386.890823,45.6910868 388.497723,43.7159385 C390.104623,41.7407901 391.577593,38.945495 392.916677,35.3299692 Z M419.329969,72.1880615 L419.329969,62.9484308 L445.642831,62.9484308 L445.642831,72.1880615 L419.329969,72.1880615 Z M467.335877,83.9384615 C469.478411,87.085308 472.574995,88.6587077 476.625723,88.6587077 C480.676451,88.6587077 484.676903,87.2192144 488.6272,84.3401846 L492.945723,92.0733538 C488.191976,95.9566963 482.233144,97.8983385 475.069046,97.8983385 C467.904949,97.8983385 462.264144,95.6386688 458.146462,91.1192615 C454.028779,86.5998543 451.969969,79.921275 451.969969,71.0833231 C451.969969,62.2453712 454.330069,55.6002684 459.050338,51.1478154 C463.770608,46.6953624 469.093386,44.4691692 475.018831,44.4691692 C480.944276,44.4691692 486.451175,45.8417094 491.539692,48.5868308 L491.539692,61.6428308 L482.300062,62.3458462 L482.300062,57.5251692 C482.300062,55.7174063 481.647268,54.5959406 480.341662,54.1607385 C479.036055,53.7255363 477.680253,53.5079385 476.274215,53.5079385 C468.172759,53.5079385 464.122092,59.2324351 464.122092,70.6816 C464.122092,76.3727054 465.193343,80.791615 467.335877,83.9384615 Z M505.399138,85.2440615 L505.399138,36.3342769 C505.399138,35.26301 505.215017,34.5265251 504.846769,34.1248 C504.478521,33.7230749 503.825728,33.4887388 502.888369,33.4217846 L499.373292,33.2209231 L499.373292,24.8851692 L517.249969,24.8851692 L517.249969,51.9010462 C520.731587,46.9464368 525.619169,44.4691692 531.912862,44.4691692 C537.001379,44.4691692 540.934878,45.9254008 543.713477,48.8379077 C546.492075,51.7504146 547.881354,56.1191093 547.881354,61.9441231 L547.881354,88.1565538 L553.605908,88.4578462 L553.605908,96.4923077 L529.703385,96.4923077 L529.703385,88.8595692 L533.0176,88.5582769 C534.021913,88.4243686 534.758398,88.1398176 535.227077,87.7046154 C535.695756,87.2694132 535.930092,86.4492368 535.930092,85.2440615 L535.930092,64.5553231 C535.930092,61.0737057 535.377729,58.3955786 534.272985,56.5208615 C533.168241,54.6461445 531.025739,53.7088 527.845415,53.7088 C524.665092,53.7088 522.120871,54.6963594 520.212677,56.6715077 C518.304483,58.646656 517.3504,61.0402321 517.3504,63.8523077 L517.3504,88.1565538 L523.074954,88.4578462 L523.074954,96.4923077 L499.172431,96.4923077 L499.172431,88.8595692 L502.486646,88.5582769 C503.490959,88.4243686 504.227444,88.1398176 504.696123,87.7046154 C505.164802,87.2694132 505.399138,86.4492368 505.399138,85.2440615 Z M604.624738,47.9842462 L604.624738,85.3444923 C604.624738,86.4157592 604.80886,87.1522441 605.177108,87.5539692 C605.545356,87.9556943 606.198149,88.1900304 607.135508,88.2569846 L610.349292,88.4578462 L610.349292,96.4923077 L594.3808,96.4923077 L594.3808,90.6673231 L594.079508,90.5668923 C590.731799,95.3875933 586.145506,97.7979077 580.320492,97.7979077 C573.491166,97.7979077 568.436201,95.6219295 565.155446,91.2699077 C561.874691,86.9178859 560.234338,80.9590532 560.234338,73.3932308 C560.234338,64.2874622 562.443793,57.1904254 566.862769,52.1019077 C571.281745,47.0133899 577.91011,44.4691692 586.748062,44.4691692 C592.439167,44.4691692 598.398,45.6408498 604.624738,47.9842462 Z M592.974769,80.5238154 L592.974769,54.5122462 C591.100052,53.6418418 588.522355,53.2066462 585.2416,53.2066462 C580.75567,53.2066462 577.508441,55.0143819 575.499815,58.6299077 C573.49119,62.2454335 572.486892,67.0325856 572.486892,72.9915077 C572.486892,83.838085 575.968457,89.2612923 582.931692,89.2612923 C585.877676,89.2612923 588.287991,88.3741627 590.162708,86.5998769 C592.037425,84.8255911 592.974769,82.8002575 592.974769,80.5238154 Z M634.653538,45.9756308 L634.653538,88.1565538 L640.378092,88.4578462 L640.378092,96.4923077 L616.475569,96.4923077 L616.475569,88.8595692 L619.789785,88.5582769 C621.731456,88.3574144 622.702277,87.2861636 622.702277,85.3444923 L622.702277,57.4247385 C622.702277,56.2865174 622.518156,55.5165559 622.149908,55.1148308 C621.78166,54.7131057 621.128866,54.5122462 620.191508,54.5122462 L616.676431,54.3113846 L616.676431,45.9756308 L634.653538,45.9756308 Z M619.890215,32.0157538 C619.890215,29.8732201 620.593224,28.0822226 621.999262,26.6427077 C623.405299,25.2031928 625.246512,24.4834462 627.522954,24.4834462 C629.799396,24.4834462 631.657347,25.2031928 633.096862,26.6427077 C634.536376,28.0822226 635.256123,29.8732201 635.256123,32.0157538 C635.256123,34.1582876 634.536376,35.9158085 633.096862,37.2883692 C631.657347,38.6609299 629.799396,39.3472 627.522954,39.3472 C625.246512,39.3472 623.405299,38.6609299 621.999262,37.2883692 C620.593224,35.9158085 619.890215,34.1582876 619.890215,32.0157538 Z M645.600492,54.0100923 L645.600492,45.9756308 L662.573292,45.9756308 L662.573292,52.5036308 C664.314101,50.0263261 666.623986,48.0679457 669.503015,46.6284308 C672.382045,45.1889159 675.495368,44.4691692 678.843077,44.4691692 C683.931595,44.4691692 687.865094,45.9254008 690.643692,48.8379077 C693.422291,51.7504146 694.811569,56.1191093 694.811569,61.9441231 L694.811569,88.1565538 L700.536123,88.4578462 L700.536123,96.4923077 L676.6336,96.4923077 L676.6336,88.8595692 L679.947815,88.5582769 C680.952128,88.4243686 681.688613,88.1398176 682.157292,87.7046154 C682.625972,87.2694132 682.860308,86.4492368 682.860308,85.2440615 L682.860308,64.5553231 C682.860308,60.8728431 682.291206,58.1445012 681.152985,56.3702154 C680.014764,54.5959296 677.855524,53.7088 674.6752,53.7088 C671.494876,53.7088 668.967394,54.7130976 667.092677,56.7217231 C665.21796,58.7303485 664.280615,61.1071863 664.280615,63.8523077 L664.280615,88.1565538 L670.005169,88.4578462 L670.005169,96.4923077 L646.102646,96.4923077 L646.102646,88.8595692 L649.416862,88.5582769 C650.421174,88.4243686 651.157659,88.1398176 651.626338,87.7046154 C652.095018,87.2694132 652.329354,86.4492368 652.329354,85.2440615 L652.329354,57.4247385 C652.329354,55.416113 651.492439,54.3783388 649.818585,54.3113846 L645.600492,54.0100923 Z" id="react-chain" fill="#505050"></path>
                <ellipse id="Oval" fill="#505050" cx="64.2472054" cy="64.6928348" rx="14.1103522" ry="14.1338292"></ellipse>
            </g>
        </g>
    </g>
</svg>